# xmcd
#
# Track frame offsets:
#  150
#  15515
#  35845
#
# Disc length: 661 seconds
#
# Revision: 0
# Processed by: cddbd v1.5.1PL2 Copyright (c) Steve Scherf et al.
# Submitted via: Collectorz.com_Music_Collector 6.11
#
DISCID=1c029303
DTITLE=TISM - Thunderbirds Are Coming Out
DYEAR=1998
DGENRE=Alt.Rock
TTITLE0=Thunderbirds Are Coming Out (5! 4! 3! 2! 1! Mix)
TTITLE1=Untz (Original Version)
TTITLE2=I Go Off
EXTD=
EXTT0=
EXTT1=
EXTT2=
PLAYORDER=
